<svg width="331" height="216" viewBox="0 0 331 216" fill="none" xmlns="http://www.w3.org/2000/svg">
<path d="M251.655 128.267C246.047 127.408 244.571 125.145 244.068 119.56C243.399 112.147 242.24 104.773 241.292 97.3895C241.004 95.7802 240.809 94.1553 240.71 92.5234C240.682 89.651 242.796 86.1776 245.335 85.8276C251.091 85.0351 257.096 84.0927 261.566 89.3215C266.052 94.5683 270.438 99.9021 274.786 105.265C277.003 107.918 279.075 110.688 280.994 113.563C285.485 120.513 281.7 128.319 273.429 129.134C266.16 129.291 258.889 129.001 251.655 128.267ZM251.878 94.2152L250.66 94.9127C252.441 102.566 254.221 110.219 256.086 118.218L269.154 117.611C263.124 108.945 258.321 100.973 251.878 94.2152Z" fill="#111827"/>
<path d="M330.186 157.891C328.598 145.588 334.229 134.343 325.312 125.48C315.153 116.555 303.915 104.516 294.429 94.2371C283.764 82.7254 273.124 71.1763 261.164 60.7539C252.399 53.0401 238.888 60.2366 228.141 59.9025C216.493 17.5185 211.651 16.4038 168.924 16.724C128.947 17.0655 94.2149 21.2654 55.6745 24.5962C20.6904 28.5941 15.5947 25.554 16.7596 64.4317C16.8947 102.037 16.8777 134.365 17.7851 170.882C17.6723 199.342 51.2958 192.555 70.8032 195.118C73.8373 222.171 113.392 222.147 121.335 198.55C164.932 195.178 207.718 197.186 251.245 189.98C256.138 215.79 296.372 215.831 299.945 189.323C330.91 187.3 331.171 191.109 330.186 157.891Z" fill="#1BB6F9"/>
<path d="M235.447 112.058C229.839 111.199 228.363 108.936 227.86 103.351C227.191 95.9378 226.032 88.5635 225.084 81.1806C224.796 79.5712 224.601 77.9463 224.502 76.3144C224.474 73.442 226.588 69.9686 229.127 69.6186C234.883 68.8261 240.888 67.8837 245.358 73.1125C249.844 78.3593 254.23 83.6931 258.578 89.0559C260.795 91.7086 262.867 94.4789 264.786 97.3541C269.277 104.304 265.492 112.11 257.221 112.925C249.952 113.082 242.681 112.792 235.447 112.058ZM235.67 78.0062L234.452 78.7037C236.233 86.3569 238.013 94.0105 239.878 102.009L252.946 101.402C246.916 92.7357 242.113 84.7636 235.67 78.0062Z" fill="#111827"/>
<path d="M313.978 141.682C312.39 129.379 318.021 118.134 309.104 109.271C298.945 100.346 287.707 88.3068 278.221 78.0281C267.556 66.5164 256.915 54.9673 244.956 44.5449C236.191 36.8311 222.68 44.0276 211.933 43.6935C200.285 1.30954 195.443 0.194773 152.716 0.514986C112.739 0.856475 78.0069 5.05638 39.4665 8.38723C4.48239 12.3851 -0.61331 9.345 0.551584 48.2227C0.68669 85.828 0.669657 118.156 1.5771 154.673C1.46434 183.133 35.0877 176.346 54.5952 178.909C57.6292 205.962 97.1835 205.938 105.127 182.341C148.724 178.969 191.51 180.977 235.037 173.771C239.93 199.581 280.164 199.622 283.737 173.114C314.702 171.091 314.963 174.9 313.978 141.682ZM12.6951 127.799C12.3983 96.2905 9.98026 63.1632 11.142 31.3292C11.7218 24.0047 12.3558 23.3056 19.7239 22.0737C34.2239 19.5524 45.3814 18.9961 59.2197 17.6131C100.875 14.3152 138.581 8.45458 182.092 12.5621C205.129 15.1152 207.314 108.645 208.141 124.928C141.343 124.776 79.359 131.144 13.5388 133.804C12.8881 131.872 12.602 129.836 12.6951 127.799ZM90.0356 184.031C74.3324 200.513 52.2133 176.614 69.1229 165.697C72.2452 164.965 75.8408 164.707 79.2898 164.223C88.6493 165.606 98.708 175.213 90.0356 184.031ZM205.993 164.015C190.64 165.965 125.134 168.909 105.894 170.292C98.0292 145.322 64.0548 148.572 56.8005 168.259C45.4229 167.366 33.9739 167.72 22.7165 165.876C10.1164 164.706 12.808 151.183 13.3909 142.067C79.642 140.809 141.96 135.406 208.857 136.004C207.902 143.067 215.879 161.926 205.996 164.015H205.993ZM268.546 175.69C259.206 188.278 237.295 174.239 250.117 160.69C252.74 158.056 259.922 159.061 262.796 160.477C267.2 163.891 271.42 170.833 268.546 175.69ZM282.014 162.977C277.043 149.341 256.521 142.833 245.537 151.728C243.893 153.02 239.503 156.196 237.452 161.515C236.303 163.836 221.484 165.996 221.689 160.292C220.335 123.377 218.628 88.3334 214.594 52.4079C222.402 52.7164 235.038 49.3511 240.552 55.9926C248.247 63.8745 256.49 72.5439 266.47 83.2896C277.201 96.1747 291.224 107.545 300.108 121.694C300.97 132.029 301.529 148.856 302.281 159.824L282.014 162.977Z" fill="#111827"/>
</svg>
