<svg width="228" height="209" viewBox="0 0 228 209" fill="none" xmlns="http://www.w3.org/2000/svg">
<path d="M152.729 65.0127C157.229 62.9891 161.307 61.1385 165.4 59.3224C167.458 58.4092 169.498 57.4262 171.627 56.7092C177.217 54.8272 179.879 55.4685 183.303 60.3741C186.559 64.9813 189.479 69.8167 192.041 74.8429C198.975 88.6646 205.659 102.613 212.324 116.569C213.905 119.88 215.008 123.421 216.353 126.913C218.058 126.743 219.781 126.432 221.506 126.432C222.561 126.384 223.606 126.656 224.505 127.211C225.403 127.766 226.112 128.58 226.542 129.547C227.087 130.46 227.31 131.53 227.173 132.585C227.036 133.64 226.547 134.618 225.787 135.362C223.667 137.299 221.265 138.903 218.662 140.117C201.893 147.98 185.039 155.659 168.245 163.471C162.554 166.119 157.003 169.076 151.295 171.685C150.478 171.964 149.771 172.497 149.279 173.207C148.787 173.916 148.534 174.764 148.56 175.628C148.331 179.164 147.762 182.672 146.862 186.099C145.194 192.052 141.72 197.341 136.921 201.236C132.121 205.132 126.231 207.443 120.062 207.85C115.256 208.361 110.4 208.154 105.654 207.24C85.8148 202.765 78.162 182.534 89.7111 165.811C90.8988 164.091 92.2375 162.476 93.8328 160.384C76.7026 118.427 57.9214 76.9602 39.0026 34.9904C36.6346 35.9149 34.5969 36.729 32.5441 37.5064C29.3809 38.7045 26.2478 40.0083 23.0214 41.0045C21.5149 41.5783 19.8688 41.6769 18.3044 41.2873C16.7389 40.6507 15.4738 39.4431 14.7649 37.909C14.08 36.1298 15.3309 34.4637 17.146 33.7042C19.2215 32.8335 21.4733 32.3447 23.4941 31.3711C28.1375 29.1334 32.7573 26.8268 37.2554 24.3136C42.1922 21.556 45.6837 22.2385 48.5761 27.2489C50.5846 30.73 52.1799 34.4485 53.9762 38.0532C54.2545 38.6107 54.6195 39.1251 55.1328 39.9694C56.7922 39.2147 58.3648 38.5412 59.9111 37.8073C78.8356 28.8157 97.7328 19.7656 116.692 10.8486C122.895 7.93063 126.1 8.8948 129.617 14.7986C132.058 18.9669 134.251 23.2752 136.187 27.7007C140.977 38.4356 145.57 49.2582 150.267 60.0356C150.904 61.4969 151.681 62.9024 152.729 65.0127Z" fill="#FC787D"/>
<path d="M138.355 56.3877C142.855 54.3641 146.933 52.5135 151.027 50.6974C153.084 49.7842 155.125 48.8012 157.253 48.0842C162.844 46.2022 165.506 46.8435 168.93 51.7491C172.185 56.3563 175.105 61.1917 177.667 66.2179C184.601 80.0396 191.285 93.9876 197.95 107.944C199.531 111.255 200.634 114.796 201.98 118.288C203.684 118.118 205.408 117.807 207.132 117.807C208.187 117.759 209.232 118.031 210.131 118.586C211.03 119.141 211.739 119.955 212.168 120.921C212.713 121.835 212.936 122.905 212.799 123.96C212.663 125.015 212.174 125.993 211.413 126.737C209.294 128.674 206.892 130.278 204.289 131.492C187.519 139.355 170.665 147.034 153.872 154.846C148.18 157.494 142.63 160.451 136.921 163.06C136.104 163.339 135.397 163.872 134.905 164.582C134.413 165.291 134.161 166.139 134.186 167.003C133.958 170.539 133.389 174.047 132.488 177.474C130.82 183.427 127.346 188.716 122.547 192.611C117.747 196.507 111.858 198.818 105.689 199.225C100.882 199.736 96.0267 199.529 91.2809 198.615C71.4413 194.14 63.7885 173.909 75.3375 157.186C76.5253 155.466 77.8639 153.851 79.4592 151.759C62.329 109.802 43.5479 68.3352 24.629 26.3654C22.2611 27.2899 20.2234 28.104 18.1705 28.8814C15.0073 30.0795 11.8743 31.3833 8.64788 32.3795C7.14133 32.9533 5.49525 33.0519 3.93091 32.6623C2.3654 32.0257 1.10023 30.8181 0.391326 29.284C-0.29358 27.5048 0.957352 25.8387 2.77245 25.0792C4.84792 24.2085 7.09981 23.7197 9.12056 22.7461C13.7639 20.5084 18.3837 18.2018 22.8819 15.6886C27.8187 12.931 31.3102 13.6135 34.2026 18.6239C36.2111 22.105 37.8064 25.8235 39.6026 29.4282C39.8809 29.9857 40.246 30.5001 40.7592 31.3444C42.4187 30.5897 43.9913 29.9162 45.5375 29.1823C64.4621 20.1907 83.3592 11.1406 102.318 2.22356C108.522 -0.694365 111.727 0.269797 115.244 6.17357C117.684 10.3419 119.878 14.6502 121.813 19.0757C126.603 29.8106 131.196 40.6332 135.894 51.4105C136.53 52.8719 137.308 54.2773 138.355 56.3877ZM161.657 59.2852C130.713 72.4069 101.51 86.6125 72.1649 100.874L90.6819 143.783C104.739 140.47 117.867 142.505 129.42 152.256L190.264 123.811L161.657 59.2852ZM126.221 61.8105C119.818 45.151 113.123 28.8859 105.802 12.7539L45.0875 40.7822C53.546 57.5199 59.1941 75.1219 67.6121 91.1294L126.221 61.8105ZM98.5861 187.659C111.322 187.693 118.877 182.1 121.113 170.977C122.622 163.452 120.333 158.938 113.281 155.985C110.168 154.682 106.914 153.72 103.744 152.553C94.8993 149.287 92.6856 149.804 86.6856 156.996C85.1173 158.833 83.7669 160.845 82.6611 162.992C80.7611 166.804 79.8309 170.857 80.8498 175.162C82.747 183.198 89.0262 187.632 98.5814 187.657L98.5861 187.659Z" fill="#111827"/>
<path d="M146.347 83.59C143.705 82.8457 141.491 82.2549 140.585 79.804C140.108 78.7482 140.044 77.5513 140.406 76.4505C140.769 75.3497 141.533 74.4256 142.544 73.8608C145.443 72.1414 148.519 70.7416 151.719 69.6855C152.97 69.2805 154.326 69.342 155.535 69.8592C156.744 70.3763 157.725 71.3142 158.296 72.4987C158.823 73.6217 158.902 74.9038 158.517 76.0829C158.131 77.2621 157.31 78.2496 156.22 78.844C153.147 80.7761 149.657 82.0419 146.347 83.59Z" fill="#111827"/>
<path d="M91.3102 33.9467C88.7706 33.1496 86.5066 32.8413 85.4962 30.362C85.0141 29.3189 84.9322 28.1351 85.266 27.0357C85.5998 25.9362 86.326 24.9975 87.3066 24.3985C90.0944 22.5856 93.1383 21.2011 96.3366 20.291C97.5347 20.001 98.7969 20.163 99.8828 20.7456C100.969 21.3281 101.802 22.2904 102.222 23.4486C102.778 24.5506 102.89 25.8235 102.537 27.0057C102.183 28.188 101.39 29.19 100.321 29.8064C97.512 31.5083 94.331 32.5939 91.3102 33.9467Z" fill="#111827"/>
</svg>
