<svg width="223" height="213" viewBox="0 0 223 213" fill="none" xmlns="http://www.w3.org/2000/svg">
<path d="M194.435 142.033C195.641 152.27 196.783 161.694 197.837 171.127C198.017 172.735 197.746 174.389 197.861 176.009C198.264 181.693 195.107 184.886 190.257 186.745C178.617 191.207 167.039 195.86 155.249 199.887C142.336 204.297 129.237 208.177 116.154 212.066C113.887 212.697 111.495 212.726 109.212 212.153C86.3428 206.209 63.7743 199.329 41.9951 190.056C38.5396 188.719 35.1912 187.12 31.9795 185.273C30.2198 184.013 28.8329 182.299 27.9654 180.316C27.2367 178.8 27.2865 176.829 27.283 175.059C27.2561 163.602 27.2296 152.143 27.4062 140.687C27.5136 139.821 27.3459 138.943 26.9259 138.178C26.506 137.413 25.8554 136.8 25.067 136.426C22.4736 134.973 20.01 133.299 17.7029 131.423C12.9873 127.444 12.2897 122.738 15.6089 117.533C16.9633 115.581 18.5036 113.766 20.208 112.111C24.6142 107.502 29.0931 102.971 33.6905 98.258C28.5392 93.6406 23.6681 89.2852 18.8107 84.9148C17.4339 83.779 16.1326 82.5548 14.9151 81.2497C11.6272 77.4001 12.0612 73.5974 16.0891 70.4748C18.2039 68.8357 20.4368 67.3443 22.5794 65.7452C39.1376 53.367 55.6596 40.941 72.263 28.6236C75.523 26.2815 78.905 24.1141 82.3951 22.1311C86.5812 19.6685 90.5315 20.0747 94.3028 23.3025C98.9367 27.2686 103.718 31.0609 108.462 34.8965C109.721 35.9148 111.07 36.8174 112.658 37.9739C114.777 35.5713 116.804 33.2461 118.86 30.9461C122.925 26.3977 126.999 21.856 131.082 17.3209C134.908 13.0661 137.49 12.2198 142.459 14.8485C151.51 19.6372 160.607 24.4253 169.214 29.9462C185.103 40.1384 200.655 50.8564 216.339 61.3669C217.204 61.9482 218.029 62.5853 218.81 63.2745C222.64 66.6493 223.07 70.1861 219.771 74.1896C214.467 80.6374 208.743 86.685 201.753 91.3885C201.272 91.712 200.845 92.1157 200.058 92.754C204.857 97.8044 209.523 102.747 214.232 107.653C215.884 109.369 217.738 110.893 219.307 112.675C223.449 117.382 223.384 122.016 219.161 126.622C215.908 130.315 211.926 133.294 207.466 135.373C202.882 137.44 198.488 139.946 194.435 142.033Z" fill="#FBB130"/>
<path d="M182.511 128.783C183.717 139.02 184.859 148.444 185.914 157.877C186.094 159.485 185.822 161.139 185.937 162.759C186.34 168.443 183.183 171.636 178.333 173.495C166.694 177.957 155.115 182.61 143.325 186.637C130.412 191.047 117.314 194.927 104.23 198.816C101.963 199.447 99.571 199.476 97.2883 198.903C74.419 192.959 51.8504 186.079 30.0713 176.806C26.6157 175.469 23.2674 173.87 20.0556 172.023C18.296 170.763 16.9091 169.049 16.0416 167.066C15.3129 165.55 15.3627 163.579 15.3592 161.809C15.3322 150.352 15.3058 138.893 15.4823 127.437C15.5898 126.571 15.4221 125.693 15.0021 124.928C14.5822 124.163 13.9316 123.55 13.1432 123.176C10.5497 121.723 8.08614 120.049 5.77912 118.173C1.06346 114.194 0.365896 109.488 3.68503 104.283C5.03947 102.331 6.57976 100.516 8.28421 98.8608C12.6903 94.2521 17.1693 89.7208 21.7667 85.008C16.6154 80.3906 11.7442 76.0352 6.88688 71.6648C5.51005 70.529 4.20875 69.3048 2.99124 67.9997C-0.296583 64.1501 0.137415 60.3474 4.16524 57.2248C6.28002 55.5857 8.51295 54.0943 10.6556 52.4952C27.2138 40.117 43.7357 27.691 60.3392 15.3736C63.5992 13.0315 66.9812 10.8641 70.4713 8.88113C74.6574 6.41851 78.6076 6.82474 82.3789 10.0525C87.0129 14.0186 91.7944 17.8109 96.5379 21.6465C97.797 22.6648 99.1466 23.5674 100.734 24.7239C102.853 22.3213 104.881 19.9961 106.936 17.6961C111.001 13.1477 115.075 8.60599 119.158 4.07091C122.984 -0.183874 125.566 -1.03019 130.535 1.59851C139.587 6.3872 148.683 11.1753 157.29 16.6962C173.179 26.8884 188.731 37.6064 204.415 48.1169C205.28 48.6982 206.105 49.3353 206.886 50.0245C210.716 53.3993 211.147 56.9361 207.847 60.9396C202.543 67.3874 196.819 73.435 189.829 78.1385C189.348 78.462 188.921 78.8657 188.134 79.504C192.933 84.5544 197.599 89.4973 202.308 94.4025C203.961 96.119 205.814 97.6425 207.383 99.4251C211.525 104.132 211.461 108.766 207.237 113.372C203.984 117.065 200.002 120.044 195.542 122.123C190.958 124.19 186.564 126.696 182.511 128.783ZM171.007 81.6091C169.164 80.5083 167.941 79.7551 166.698 79.0395C151.387 70.2221 136.103 61.3604 120.746 52.6256C115.331 49.5464 109.653 46.9274 104.256 43.8178C101.349 42.1422 99.177 42.6932 96.5544 44.4263C80.5731 55.0028 64.5034 65.4464 48.4469 75.9047C44.379 78.5551 40.2503 81.1115 35.8207 83.9193C36.8937 84.615 37.4782 85.0569 38.119 85.3977C57.2956 95.5025 76.533 105.492 95.6153 115.77C99.8666 118.06 103.431 118.649 107.221 115.283C108.299 114.491 109.467 113.83 110.7 113.315C128.448 104.007 146.2 94.7017 163.951 85.4011C166.149 84.249 168.324 83.0526 171.007 81.6091ZM107.663 33.3483C132.185 46.4483 155.033 61.2037 179.668 72.5967L195.154 56.9445C194.638 56.3949 194.086 55.8794 193.502 55.4011C178.96 45.6177 164.484 35.7306 149.821 26.1315C143.621 22.0723 137.029 18.611 130.604 14.9014C128.604 13.7457 126.903 13.771 125.101 15.6631C119.468 21.5649 113.661 27.2909 107.663 33.3474V33.3483ZM25.7095 131.049C26.7721 142.364 27.7436 152.558 28.6723 162.756C28.6939 163.502 28.9613 164.219 29.4331 164.796C29.905 165.373 30.5549 165.778 31.2809 165.947C32.5505 166.356 33.7652 166.929 35.02 167.397C53.5417 174.325 72.6227 179.389 91.7353 184.339C92.8336 184.529 93.9423 184.643 95.0553 184.679V139.529C92.1857 142.679 90.0283 145.336 87.5701 147.681C85.0873 150.232 82.337 152.509 79.367 154.471C75.3896 156.881 70.9582 157.319 66.6712 154.893C55.4248 148.531 44.1929 142.142 32.9756 135.724C30.8086 134.485 28.7712 133.03 25.7095 131.049V131.049ZM173.398 133.658C171.189 134.646 170.101 135.075 169.063 135.604C158.094 141.203 147.063 146.694 136.203 152.494C132.435 154.506 129.081 154.535 125.82 152.053C120.503 148.006 115.332 143.771 110.104 139.609C109.018 138.743 107.957 137.848 106.677 136.796C107.534 153.298 108.362 169.257 109.2 185.432C110.278 185.149 111.287 184.951 112.243 184.619C118.41 182.485 124.604 180.419 130.72 178.144C143.367 173.439 155.971 168.624 168.587 163.836C170.254 163.204 171.804 162.612 171.909 160.263C172.292 151.669 172.854 143.086 173.398 133.652V133.658ZM12.3904 110.097L74.7337 144.91L93.1005 127.781L28.4269 90.8077L12.3904 110.097ZM113.19 125.581C118.642 129.816 123.776 133.623 128.688 137.696C131.171 139.753 133.216 140.109 136.211 138.513C154.421 128.809 172.745 119.315 191.022 109.736C192.293 109.07 193.5 108.284 194.641 107.611L180.119 87.9121L113.19 125.581ZM74.3329 20.2674C53.8042 32.8761 35.8982 48.715 17.0129 61.8324L31.6215 77.0906L92.2692 36.0805L74.3329 20.2674Z" fill="#111827"/>
</svg>
