<svg width="187" height="200" viewBox="0 0 187 200" fill="none" xmlns="http://www.w3.org/2000/svg">
<g clip-path="url(#clip0_6305_10854)">
<path d="M185.81 75.872C186.151 97.9183 180.722 118.601 170.438 138.038C163.681 150.809 155.587 162.635 145.149 172.694C135.625 182.006 124.967 190.079 113.426 196.72C111.465 197.788 109.429 198.709 107.332 199.475C106.241 199.954 105.032 200.093 103.861 199.875C102.69 199.656 101.613 199.089 100.767 198.249C99.7899 197.398 98.6287 196.789 97.3744 196.467C76.0819 191.001 59.4131 178.774 46.414 161.326C32.7693 143.012 23.8593 122.457 18.9007 100.243C16.6376 90.1044 14.8739 79.8052 15.1802 69.3164C15.3002 62.4562 16.3443 55.6438 18.2843 49.0635C18.6949 47.6809 19.3069 46.3666 20.1003 45.1628C20.9668 43.885 22.3803 43.1942 23.9055 43.9202C30.0338 46.8397 36.6691 46.9486 43.1968 47.2515C56.7722 47.882 69.6066 44.6401 81.6508 38.5244C89.4188 34.579 95.8624 29.0178 99.7337 20.9306C100 20.3277 100.309 19.7445 100.657 19.1856C102.538 16.3802 106.134 16.1445 107.863 18.9707C114.31 29.5134 124.111 35.8877 134.796 41.2705C145.261 46.543 156.336 47.784 167.826 46.611C170.443 46.3437 173.064 46.1384 175.69 45.9945C179.313 45.7965 180.797 46.7213 182.353 50.2659C184.399 54.9924 185.559 60.0554 185.775 65.2024C185.953 68.75 185.81 72.3144 185.81 75.872Z" fill="#FBB130"/>
</g>
<g clip-path="url(#clip1_6305_10854)">
<path d="M171.609 59.3037C171.95 81.3499 166.52 102.033 156.237 121.47C149.48 134.241 141.386 146.067 130.948 156.125C121.424 165.438 110.766 173.511 99.2249 180.152C97.2643 181.22 95.2274 182.14 93.1305 182.906C92.0402 183.386 90.8305 183.525 89.6601 183.306C88.4889 183.088 87.4116 182.521 86.566 181.681C85.5887 180.83 84.4275 180.22 83.1733 179.899C61.8808 174.432 45.2119 162.206 32.2128 144.758C18.5681 126.443 9.65815 105.888 4.69951 83.6744C2.43643 73.536 0.672725 63.2368 0.978984 52.7481C1.09901 45.8879 2.14315 39.0755 4.08313 32.4951C4.49376 31.1126 5.10569 29.7982 5.89915 28.5945C6.7656 27.3166 8.17918 26.6258 9.70432 27.3518C15.8326 30.2713 22.4679 30.3802 28.9956 30.6831C42.571 31.3136 55.4055 28.0717 67.4496 21.956C75.2177 18.0107 81.6612 12.4495 85.5325 4.36227C85.7988 3.75938 86.1073 3.17614 86.4559 2.61723C88.3366 -0.188205 91.9332 -0.423899 93.6623 2.40234C100.109 12.945 109.91 19.3194 120.595 24.7021C131.06 29.9746 142.135 31.2156 153.625 30.0426C156.242 29.7754 158.863 29.5701 161.489 29.4262C165.112 29.2281 166.596 30.153 168.152 33.6975C170.198 38.424 171.357 43.4871 171.574 48.634C171.751 52.1817 171.609 55.746 171.609 59.3037ZM91.5046 13.9146C90.9382 14.5096 90.4565 14.939 90.0649 15.4392C85.9911 20.6511 80.8848 24.9626 75.0676 28.1034C56.0057 38.438 35.8133 40.9852 14.683 36.2122C13.7149 35.9933 12.7338 35.8363 11.5465 35.6097C10.1884 42.8357 9.9571 50.2289 10.8609 57.5259C11.7322 65.1105 13.0887 72.6312 14.9223 80.042C19.8729 100.982 29.0407 120.688 41.8639 137.954C53.9288 154.109 69.5072 165.157 89.2807 169.917C90.5997 170.234 91.7177 170.456 93.0151 169.648C104.225 162.662 114.853 154.922 123.997 145.326C136.797 131.892 146.082 116.198 152.709 98.9509C159.525 81.2181 161.698 62.742 160.566 43.8385C160.381 42.3496 160.104 40.8738 159.737 39.4192C146.647 42.7333 134.253 41.1619 122.345 36.2061C110.437 31.2504 99.7674 24.3355 91.5061 13.9146H91.5046Z" fill="#111827"/>
<path d="M81.4674 117.536C83.6789 114.961 85.4688 112.864 87.2748 110.777C97.0074 99.4924 107.477 88.868 118.615 78.9742C119.777 77.9045 121.063 76.9805 122.448 76.2219C123.5 75.6671 124.706 75.4748 125.879 75.6744C127.052 75.874 128.126 76.4546 128.936 77.3264C130.345 78.9357 130.53 81.355 129.201 83.5939C128.45 84.8317 127.553 85.9739 126.528 86.9959C122.081 91.4962 117.464 95.8323 113.113 100.421C105.679 108.26 98.3701 116.221 91.0607 124.175C85.2025 130.552 82.6971 130.98 75.5317 126.128C69.5369 122.068 63.6254 117.888 57.7972 113.585C55.4318 111.694 53.1733 109.674 51.0318 107.532C50.4532 106.992 49.9551 106.373 49.5529 105.691C48.4032 103.741 48.5209 101.634 49.8321 100.186C50.4423 99.4739 51.27 98.9845 52.1867 98.7918C53.1035 98.5991 54.058 98.7148 54.9024 99.1209C56.5445 99.9387 58.0983 100.924 59.5394 102.06C66.7488 107.131 73.9397 112.222 81.4674 117.536Z" fill="#111827"/>
</g>
<defs>
<clipPath id="clip0_6305_10854">
<rect width="171.598" height="183.432" fill="white" transform="translate(15.0254 16.5684)"/>
</clipPath>
<clipPath id="clip1_6305_10854">
<rect width="171.598" height="183.432" fill="white" transform="translate(0.824219)"/>
</clipPath>
</defs>
</svg>
